<svg xmlns="http://www.w3.org/2000/svg" width="209" height="52" fill="none"><path fill="#fff" d="M67.7 18.77v5.25h9.88v5.08H67.7V39h-6.07V13.5H78.4v5.27H67.7zm24.46 7.13c-.26-.08-.53-.12-.8-.15-.23-.02-.47-.03-.7-.03-.8 0-1.47.14-2.03.43-.52.3-.96.63-1.3 1.04-.3.4-.53.84-.68 1.32-.14.48-.2.9-.2 1.26V39h-5.92V21.07h5.7v2.6h.06c.45-.92 1.1-1.66 1.94-2.24.84-.57 1.8-.86 2.9-.86.25 0 .48 0 .7.03.24.03.43.06.57.1l-.24 5.2zM106.62 39v-2.48h-.08c-.2.4-.5.8-.86 1.15-.34.36-.74.67-1.22.93-.46.27-.98.48-1.55.65-.54.17-1.13.25-1.76.25-1.2 0-2.22-.2-3.06-.64-.8-.44-1.48-1-2-1.66-.52-.7-.9-1.48-1.13-2.34-.2-.9-.32-1.8-.32-2.7v-11.1h5.94v9.73c0 .5.03.98.1 1.43.08.46.2.87.4 1.23.22.36.5.64.83.86.34.2.78.3 1.33.3 1.03 0 1.8-.4 2.34-1.16.55-.77.83-1.67.83-2.7v-9.7h5.9V39h-5.68zm16.7-23.65c0 .45-.1.9-.28 1.3-.17.38-.4.7-.72 1-.3.3-.65.52-1.08.7-.4.15-.84.24-1.3.24-.95 0-1.76-.32-2.4-.95-.66-.65-.98-1.4-.98-2.3 0-.43.08-.84.25-1.23.18-.4.42-.75.73-1.04.3-.3.67-.52 1.08-.68.42-.2.87-.3 1.34-.3.46 0 .9.1 1.3.26.43.17.8.4 1.08.68.3.3.55.64.72 1.05.2.37.3.8.3 1.25zM117 39V21.07h5.9V39H117zm16.98-13.5v6.84c0 .84.16 1.48.47 1.9.34.42.92.62 1.76.62.3 0 .6-.02.9-.07.35-.06.63-.13.84-.23l.07 4.32c-.4.14-.9.26-1.53.35-.63.12-1.25.18-1.88.18-1.2 0-2.2-.14-3.03-.43-.82-.3-1.48-.74-1.98-1.3-.5-.57-.84-1.24-1.05-2-.22-.8-.33-1.68-.33-2.64V25.5h-2.88v-4.43h2.85v-4.7h5.78v4.7h4.2v4.43H134zm13.4-10.15c0 .45-.1.9-.3 1.3-.16.38-.4.7-.7 1-.3.3-.66.52-1.1.7-.4.15-.83.24-1.3.24-.95 0-1.75-.32-2.4-.95-.65-.65-.97-1.4-.97-2.3 0-.43.1-.84.26-1.23.17-.4.4-.75.72-1.04.3-.3.67-.52 1.08-.68.4-.2.85-.3 1.33-.3.45 0 .88.1 1.3.26.42.17.78.4 1.07.68.3.3.55.64.72 1.05.18.37.28.8.28 1.25zM141.04 39V21.07h5.9V39h-5.9zm29.6-9.04c0 1.47-.28 2.8-.8 4-.53 1.18-1.25 2.18-2.16 3.02-.92.82-1.97 1.46-3.17 1.9-1.2.47-2.48.7-3.84.7-1.35 0-2.63-.23-3.86-.7-1.2-.44-2.25-1.08-3.16-1.9-.9-.84-1.6-1.84-2.13-3.02-.52-1.2-.78-2.53-.78-4 0-1.46.26-2.78.8-3.96.52-1.17 1.23-2.17 2.12-2.98.9-.82 1.96-1.44 3.16-1.88 1.23-.43 2.5-.64 3.86-.64 1.36 0 2.65.2 3.85.64 1.2.44 2.26 1.06 3.18 1.88.9.8 1.63 1.8 2.16 2.98.52 1.18.8 2.5.8 3.96zm-5.7 0c0-.57-.1-1.14-.3-1.7-.18-.54-.46-1.02-.82-1.43-.36-.43-.8-.78-1.33-1.04-.54-.28-1.15-.4-1.84-.4-.7 0-1.3.12-1.84.4-.53.25-.97.6-1.33 1.03-.35.4-.6.9-.8 1.44-.17.55-.26 1.12-.26 1.7 0 .57.1 1.13.26 1.7.2.54.46 1.04.82 1.5.36.43.8.78 1.34 1.04.52.28 1.14.4 1.83.4.7 0 1.3-.12 1.83-.4.53-.25.97-.6 1.33-1.03.36-.46.62-.96.8-1.5.18-.57.28-1.13.28-1.7zm21.2 9.04v-9.8c0-.5-.05-.98-.14-1.43-.08-.46-.2-.85-.4-1.2s-.47-.63-.83-.82c-.34-.2-.77-.32-1.3-.32-.52 0-1 .1-1.4.32-.38.2-.7.47-.97.83-.26.36-.47.78-.6 1.26-.13.46-.2.94-.2 1.44V39h-5.93V21.07h5.72v2.5h.06c.22-.4.5-.77.83-1.13.35-.38.76-.7 1.22-.97.47-.27 1-.48 1.54-.65.56-.17 1.14-.25 1.77-.25 1.2 0 2.22.2 3.06.65.83.43 1.5 1 2 1.7.53.66.9 1.44 1.12 2.33.24.9.36 1.77.36 2.66V39h-5.94zM0 0h52v52H0z"/><path fill="#0CBA78" fill-rule="evenodd" d="M35.84 20.66l4.72-2.94L25.06 8 3 20.8l5.1 3.32 6.03-3.63 11.8 7.5 5.4-3.64-11.5-7.43c-.77.24 5.24-3.07 5.24-3.07s6.46 4.3 10.77 6.8zm8.7 2.84l-5.65 3.87v7.34L25.52 43l-13.5-8.3v-8.36l13.5 8.37 12.13-7.6-.05-.06 8.24-5.66.4-.28.58.82-.4.28-.9.62v9.35c.14.07.27.2.36.32.1.15.17.34.17.54 0 .25-.1.48-.26.65.84 2 .7 7.4.7 7.4h-2.88s-.14-5.4.7-7.4c-.16-.18-.25-.4-.25-.66 0-.1.02-.22.05-.32.03-.08.07-.16.12-.23.06-.1.15-.2.25-.26.02-.02.04-.04.08-.06l-.05-8.68z" clip-rule="evenodd"/><path fill="#fff" d="M47 22.14l-1.2-.92.37-.32.7.5.13.74z"/></svg>