<svg xmlns="http://www.w3.org/2000/svg" width="17" height="49" fill="none"><path fill="#22293B" d="M11.62 33.15l-3.12 3.2-3.12-3.2c-.37-.38-.94-.38-1.32 0-.38.4-.38.97 0 1.36l3.78 3.87c.2.2.42.3.66.3.24 0 .47-.1.66-.3l3.78-3.86c.38-.38.38-.96 0-1.35-.38-.38-.95-.38-1.32 0zM12.94 43.5c-.38-.4-.95-.4-1.32 0L8.5 46.68 5.38 43.5c-.37-.4-.94-.4-1.32 0-.38.38-.38.96 0 1.35l3.78 3.86c.2.2.42.3.66.3.24 0 .47-.1.66-.3l3.78-3.85c.38-.4.38-.97 0-1.35zM0 8.7v8.68c0 4.78 3.83 8.7 8.5 8.7 4.68 0 8.5-3.92 8.5-8.7v-8.7C17 3.92 13.18 0 8.5 0 3.83 0 0 3.9 0 8.7zm8.5-6.77c3.64 0 6.6 3.04 6.6 6.76v8.68c0 3.72-2.96 6.76-6.6 6.76-3.64 0-6.6-3.04-6.6-6.76v-8.7c0-3.7 2.96-6.75 6.6-6.75zM8.5 20.76c.52 0 .94-.43.94-.97v-2.9c0-.53-.42-.97-.94-.97s-.94.44-.94.97v2.9c0 .53.42.96.94.96z"/></svg>