<svg xmlns="http://www.w3.org/2000/svg" viewBox="0 0 157.8 110.2" enable-background="new 0 0 157.8 110.2"><style type="text/css">.st0{fill:#2E2E2E;} .st1{display:none;fill:#FFFFFF;}</style><path d="M139.8 30.4c0-9.1 0-18 0-27.1 5.4 0 10.5 0 15.9 0 0 .8 0 1.6 0 2.3 0 19.6.1 39.1.1 58.7 0 24.6-20.2 44.1-44.9 43.1-20.4-.8-37.8-16.6-40.7-36.7-3.5-24 13.1-45.7 36.6-49.1 11.1-1.6 21.4.9 30.7 7.3.6.4 1.2.8 1.8 1.3 0 .1 0 .1.5.2zm-27.1 61.7c15.1 0 27.2-12.1 27.1-27.1 0-14.9-12.3-27.1-27.3-27-14.9 0-26.8 12.2-26.8 27.1 0 15 12 27 27 27zM71.2 30c-2.9 4.8-5.7 9.6-8.5 14.2-13.1-10.3-28.9-6.8-37.7 2.9-8.7 9.5-9 24.9-.9 35 7.7 9.6 24.9 15.2 39.1 3.5 2.8 4.4 5.6 8.7 8.4 13.2-12 10.7-36.4 13.6-53.5-1.1-18.5-16-20.8-42.9-5.2-61C28.7 18.2 54.8 17.3 71.2 30z" class="st0"/><path d="M112.7 92.1c-14.9 0-26.9-11.9-27-26.9 0-15 11.9-27.1 26.8-27.2 14.9-.1 27.3 12.1 27.3 27 0 15-12.1 27-27.1 27.1z" class="st1"/></svg>