<svg width="50" height="34" viewBox="0 0 50 34" fill="none" xmlns="http://www.w3.org/2000/svg">
<g clip-path="url(#clip0)">
<rect width="50" height="34" fill="black" fill-opacity="0"/>
<rect width="49.9999" height="33.9999" fill="black" fill-opacity="0"/>
<rect width="49.9999" height="33.9999" fill="black" fill-opacity="0"/>
<rect width="49.9999" height="33.9999" fill="black" fill-opacity="0"/>
<path d="M44.7069 8.78537C44.7069 5.81024 44.7069 2.94012 44.7069 0C46.442 0 48.1246 0 49.9824 0C49.9824 0.402517 49.9824 0.840035 49.9824 1.26005C49.9824 7.43781 49.9999 13.6156 49.9999 19.7933C49.9999 27.5987 43.8481 33.8464 36.0313 33.9689C28.5124 34.0914 22.0451 27.8962 21.8698 20.3884C21.7121 13.2131 26.5669 7.2103 33.6301 6.02025C37.3458 5.40773 40.7985 6.21276 43.9182 8.33035C44.0759 8.43536 44.2162 8.55786 44.3739 8.64536C44.444 8.68037 44.5141 8.69787 44.7069 8.78537ZM44.7244 20.1784C44.742 15.2606 40.816 11.288 35.9436 11.2705C31.0888 11.253 27.0752 15.2256 27.0402 20.0908C27.0051 24.8685 31.0187 28.9287 35.8034 28.9462C40.7284 28.9462 44.7244 25.0261 44.7244 20.1784Z" fill="#22293B"/>
<path d="M19.7492 26.7937C20.6606 28.2288 21.5895 29.6638 22.5009 31.1164C17.3656 35.2466 9.02296 35.1416 3.67737 29.4888C-1.0548 24.5011 -1.26511 15.9782 3.30931 10.833C8.35695 5.18029 16.6295 4.23525 22.3607 8.64543C21.4493 10.168 20.5204 11.6731 19.5564 13.2656C17.1728 11.4806 14.4387 10.7805 11.4241 11.6206C9.42607 12.1806 7.83116 13.3531 6.62183 15.0682C4.22069 18.4633 4.58875 23.1535 7.49815 26.2337C10.6705 29.5588 14.982 29.7513 19.7492 26.7937Z" fill="#22293B"/>
</g>
<defs>
<clipPath id="clip0">
<rect width="50" height="34" fill="white"/>
</clipPath>
</defs>
</svg>
