<svg id="Layer_1" data-name="Layer 1" xmlns="http://www.w3.org/2000/svg" viewBox="0 0 214.17 186.36"><defs><style>.cls-1,.cls-4{fill:none;}.cls-2{fill:#fff;}.cls-3{fill:#a3a3a3;}.cls-4{stroke:#d4d6d6;stroke-miterlimit:10;stroke-width:7px;}</style></defs><title>sphere-logo</title><path class="cls-1" d="M64,0h94V98H64Z" transform="translate(-3.91)"/><path class="cls-2" d="M26.24,148.14a12.69,12.69,0,0,0-5.88-1.56,4.57,4.57,0,0,0-2.46.6,1.86,1.86,0,0,0-.9,1.62,2.88,2.88,0,0,0,.12.9,2,2,0,0,0,.66.6,6.33,6.33,0,0,0,1.5.54l2.64.6a12.35,12.35,0,0,1,6.72,3.24,8.08,8.08,0,0,1,2.22,5.88,10.47,10.47,0,0,1-4.08,8.52,14.18,14.18,0,0,1-4.62,2.22,19.92,19.92,0,0,1-5.94.84,24.14,24.14,0,0,1-12.3-3.54l4-7.68A15.47,15.47,0,0,0,16.51,164a4.25,4.25,0,0,0,2.46-.66,2,2,0,0,0,1-1.68,2.16,2.16,0,0,0-.18-1,1.28,1.28,0,0,0-.6-.72,4.09,4.09,0,0,0-1.44-.6,20.76,20.76,0,0,0-2.4-.6q-5-1-7.08-3a7.67,7.67,0,0,1-2-5.58,10.72,10.72,0,0,1,1-4.62A9.56,9.56,0,0,1,10,142.08a13,13,0,0,1,4.32-2.22,19.64,19.64,0,0,1,5.7-.78,25.73,25.73,0,0,1,9.9,2l-3.66,7.08Zm34.67,7.56a7,7,0,0,0-.55-2.7,6.15,6.15,0,0,0-1.44-2.28,6.81,6.81,0,0,0-2.27-1.5,6.34,6.34,0,0,0-2.76-.6,6.78,6.78,0,0,0-2.7.54,7,7,0,0,0-2.22,1.5,8.35,8.35,0,0,0-1.5,2.28,6.78,6.78,0,0,0-.54,2.7,7,7,0,0,0,2,4.92,8.67,8.67,0,0,0,2.22,1.5,7.22,7.22,0,0,0,2.76.54,6.78,6.78,0,0,0,2.7-.54,6.35,6.35,0,0,0,2.16-1.5,7.37,7.37,0,0,0,1.5-2.22,6.07,6.07,0,0,0,.6-2.64ZM47.2,186.36H36.37V140.22H47.21v3.42a11.51,11.51,0,0,1,9.5-4.38,14.13,14.13,0,0,1,6.1,1.32,15.09,15.09,0,0,1,5,3.48A15.51,15.51,0,0,1,71,149.28a17.12,17.12,0,0,1,1.2,6.42,16.67,16.67,0,0,1-1.2,6.36,15.67,15.67,0,0,1-3.24,5.16,14.76,14.76,0,0,1-11,4.74,12.85,12.85,0,0,1-9.6-4v18.36ZM78.42,121.2H89.28v22.92a11.59,11.59,0,0,1,4.5-3.6,13.69,13.69,0,0,1,5.34-1q5.82,0,8.76,3.24t3,8.64V171H100V155.46a16.09,16.09,0,0,0-.36-3.78,4.4,4.4,0,0,0-1.2-2.22A5.1,5.1,0,0,0,95,148.2a5.41,5.41,0,0,0-4.26,1.68,6.83,6.83,0,0,0-1.44,4.68V171H78.43V121.2Zm62.34,29.94a6.53,6.53,0,0,0-2.22-3.66,6.22,6.22,0,0,0-4.08-1.38,6.34,6.34,0,0,0-4.14,1.32,6,6,0,0,0-2,3.72ZM128,157.44q0,7,6.6,7a5.9,5.9,0,0,0,5.34-2.88h10.5q-3.18,10.56-15.9,10.56a21.39,21.39,0,0,1-7.14-1.14,16.64,16.64,0,0,1-5.58-3.36,15,15,0,0,1-3.54-5.16,17.2,17.2,0,0,1-1.26-6.72,18.77,18.77,0,0,1,1.2-6.9,14.53,14.53,0,0,1,3.42-5.28,14.86,14.86,0,0,1,5.34-3.3,20.1,20.1,0,0,1,7.14-1.2,19.43,19.43,0,0,1,7,1.2,13.9,13.9,0,0,1,5.28,3.36,14.7,14.7,0,0,1,3.3,5.46,21.25,21.25,0,0,1,1.14,7.2v1.14Zm29.07-17.22H168v5a12.2,12.2,0,0,1,4.26-4.2,11.28,11.28,0,0,1,5.88-1.5h.9a6.59,6.59,0,0,1,1.2.12v10.38a10.28,10.28,0,0,0-4.67-1.08,7,7,0,0,0-5.7,2.28Q168,153.48,168,157.8V171H157.11Zm50.8,10.92a6.56,6.56,0,0,0-2.2-3.66,6.95,6.95,0,0,0-8.23-.06,6,6,0,0,0-2,3.72h12.41Zm-12.7,6.3q0,7,6.6,7a5.89,5.89,0,0,0,5.33-2.88h10.5q-3.18,10.56-15.9,10.56a21.39,21.39,0,0,1-7.14-1.14,16.73,16.73,0,0,1-5.6-3.36,15.15,15.15,0,0,1-3.53-5.16,17.2,17.2,0,0,1-1.26-6.72,18.77,18.77,0,0,1,1.2-6.9,14.55,14.55,0,0,1,3.43-5.28,14.86,14.86,0,0,1,5.34-3.3,20.1,20.1,0,0,1,7.14-1.2,19.49,19.49,0,0,1,7,1.2,13.9,13.9,0,0,1,5.28,3.36,14.44,14.44,0,0,1,3.3,5.46,21,21,0,0,1,1.15,7.2v1.14Z" transform="translate(-3.91)"/><ellipse class="cls-3" cx="107.09" cy="60.84" rx="49.84" ry="49.28"/><ellipse class="cls-2" cx="107.09" cy="56.43" rx="49.17" ry="48.62"/><line class="cls-4" x1="66" y1="56.5" x2="147.81" y2="56.5"/><path class="cls-4" d="M153.69,56.41c0,21-16.12,42.87-42.87,42.87a42.87,42.87,0,1,1,42.87-42.87Z" transform="translate(-3.91)"/></svg>