<?xml version="1.0" encoding="utf-8"?>
<!-- Generator: Adobe Illustrator 21.1.0, SVG Export Plug-In . SVG Version: 6.00 Build 0)  -->
<svg version="1.1" id="Layer_1" xmlns="http://www.w3.org/2000/svg" xmlns:xlink="http://www.w3.org/1999/xlink" x="0px" y="0px"
	 viewBox="0 0 222 194" style="enable-background:new 0 0 222 194;" xml:space="preserve">
<style type="text/css">
	.st0{fill:none;}
	.st1{fill:#FFFFFF;}
	.st2{fill:#A3A3A3;}
	.st3{fill:none;stroke:#D4D6D6;stroke-width:7;stroke-miterlimit:10;}
</style>
<path class="st0" d="M64,0h94v98H64V0z"/>
<g>
	<path class="st1" d="M26.2,148.1c-2-1-4-1.6-5.9-1.6c-1,0-1.8,0.2-2.5,0.6c-0.6,0.4-0.9,0.9-0.9,1.6c0,0.4,0,0.7,0.1,0.9
		c0.1,0.2,0.3,0.4,0.7,0.6c0.4,0.2,0.9,0.4,1.5,0.5c0.7,0.2,1.6,0.4,2.6,0.6c3,0.6,5.2,1.7,6.7,3.2c1.5,1.5,2.2,3.5,2.2,5.9
		c0,1.8-0.4,3.4-1.1,4.9s-1.7,2.7-3,3.7c-1.3,1-2.8,1.7-4.6,2.2c-1.8,0.6-3.8,0.8-5.9,0.8c-4.2,0-8.3-1.2-12.3-3.5l4-7.7
		c3,2.1,5.9,3.1,8.6,3.1c1,0,1.8-0.2,2.5-0.7s1-1,1-1.7c0-0.4-0.1-0.7-0.2-1c-0.1-0.3-0.3-0.5-0.6-0.7c-0.3-0.2-0.8-0.4-1.4-0.6
		c-0.6-0.2-1.4-0.4-2.4-0.6c-3.4-0.7-5.7-1.7-7.1-3c-1.3-1.4-2-3.2-2-5.6c0-1.7,0.3-3.3,1-4.6c0.6-1.4,1.6-2.6,2.8-3.5
		c1.2-1,2.6-1.7,4.3-2.2c1.7-0.5,3.6-0.8,5.7-0.8c3.4,0,6.7,0.7,9.9,2L26.2,148.1L26.2,148.1z M60.9,155.7c0-1-0.2-1.9-0.5-2.7
		c-0.3-0.9-0.8-1.6-1.4-2.3c-0.6-0.6-1.4-1.1-2.3-1.5c-0.8-0.4-1.8-0.6-2.8-0.6c-1,0-1.9,0.2-2.7,0.5s-1.6,0.9-2.2,1.5
		c-0.6,0.6-1.1,1.4-1.5,2.3c-0.4,0.8-0.5,1.7-0.5,2.7c0,1,0.2,1.9,0.5,2.7c0.4,0.8,0.9,1.6,1.5,2.2c0.6,0.6,1.4,1.1,2.2,1.5
		c0.9,0.4,1.8,0.5,2.8,0.5s1.9-0.2,2.7-0.5s1.6-0.9,2.2-1.5c0.6-0.6,1.1-1.4,1.5-2.2C60.7,157.5,60.9,156.6,60.9,155.7L60.9,155.7z
		 M47.2,186.4H36.4v-46.1h10.8v3.4c2.3-2.9,5.5-4.4,9.5-4.4c2.2,0,4.2,0.4,6.1,1.3c1.9,0.8,3.6,2,5,3.5s2.5,3.2,3.2,5.2
		c0.8,2,1.2,4.1,1.2,6.4s-0.4,4.4-1.2,6.4c-0.8,2-1.8,3.7-3.2,5.2c-1.4,1.5-3,2.6-4.9,3.5c-1.9,0.8-3.9,1.3-6.1,1.3
		c-3.8,0-7-1.3-9.6-4L47.2,186.4L47.2,186.4z M78.4,121.2h10.9v22.9c1.5-1.8,3-3,4.5-3.6c1.5-0.6,3.3-1,5.3-1c3.9,0,6.8,1.1,8.8,3.2
		c2,2.1,3,5,3,8.6V171H100v-15.5c0-1.6-0.1-2.8-0.4-3.8s-0.6-1.7-1.2-2.2c-1-0.8-2.1-1.3-3.5-1.3c-1.8,0-3.3,0.6-4.3,1.7
		c-1,1.1-1.4,2.6-1.4,4.7V171H78.4L78.4,121.2L78.4,121.2z M140.8,151.1c-0.4-1.5-1.1-2.7-2.2-3.7s-2.5-1.4-4.1-1.4
		c-1.7,0-3.1,0.4-4.1,1.3c-1,0.9-1.7,2.1-2,3.7H140.8z M128,157.4c0,4.7,2.2,7,6.6,7c2.4,0,4.1-1,5.3-2.9h10.5
		c-2.1,7-7.4,10.6-15.9,10.6c-2.6,0-5-0.4-7.1-1.1c-2.2-0.8-4-1.9-5.6-3.4c-1.5-1.4-2.7-3.2-3.5-5.2c-0.8-2-1.3-4.2-1.3-6.7
		c0-2.6,0.4-4.9,1.2-6.9c0.8-2.1,1.9-3.8,3.4-5.3c1.5-1.4,3.3-2.5,5.3-3.3c2.1-0.8,4.5-1.2,7.1-1.2c2.6,0,4.9,0.4,7,1.2
		c2.1,0.8,3.8,1.9,5.3,3.4s2.5,3.3,3.3,5.5c0.8,2.1,1.1,4.5,1.1,7.2v1.1H128z M157.1,140.2H168v5c1.2-1.8,2.6-3.2,4.3-4.2
		c1.7-1,3.6-1.5,5.9-1.5c0.3,0,0.6,0,0.9,0c0.4,0,0.8,0,1.2,0.1v10.4c-1.4-0.7-3-1.1-4.7-1.1c-2.5,0-4.4,0.8-5.7,2.3
		c-1.2,1.5-1.9,3.7-1.9,6.5V171h-10.9V140.2z M207.9,151.1c-0.4-1.5-1.1-2.7-2.2-3.7c-1.1-0.9-2.5-1.4-4.1-1.4
		c-1.7,0-3.1,0.4-4.1,1.3c-1,0.9-1.7,2.1-2,3.7H207.9L207.9,151.1z M195.2,157.4c0,4.7,2.2,7,6.6,7c2.4,0,4.1-1,5.3-2.9h10.5
		c-2.1,7-7.4,10.6-15.9,10.6c-2.6,0-5-0.4-7.1-1.1c-2.2-0.8-4-1.9-5.6-3.4c-1.5-1.4-2.7-3.2-3.5-5.2c-0.8-2-1.3-4.2-1.3-6.7
		c0-2.6,0.4-4.9,1.2-6.9c0.8-2.1,1.9-3.8,3.4-5.3s3.3-2.5,5.3-3.3c2.1-0.8,4.5-1.2,7.1-1.2c2.6,0,4.9,0.4,7,1.2
		c2.1,0.8,3.8,1.9,5.3,3.4c1.4,1.5,2.6,3.3,3.3,5.5c0.8,2.1,1.1,4.5,1.1,7.2v1.1H195.2z"/>
	<ellipse class="st2" cx="111" cy="60.8" rx="49.8" ry="49.3"/>
	<g>
		<ellipse class="st1" cx="111" cy="56.4" rx="49.2" ry="48.6"/>
		<line class="st3" x1="69.9" y1="56.5" x2="151.7" y2="56.5"/>
		<path class="st3" d="M153.7,56.4c0,21-16.1,42.9-42.9,42.9c-23.7,0-42.9-19.2-42.9-42.9s19.2-42.9,42.9-42.9
			S153.7,32.7,153.7,56.4z"/>
	</g>
</g>
</svg>
